<svg width="64" height="64" xmlns="http://www.w3.org/2000/svg">

 <g transform="matrix(1 0 0 1 7.853733991458405 -1.1580950477571923)">
  <title>Layer 1</title>
  <path id="svg_1" d="m-7.853734,33.158096c0,-17.673115 14.326886,-32.000001 32.000001,-32.000001c17.673115,0 32,14.326887 32,32.000001c0,17.673115 -14.326885,32 -32,32c-17.673115,0 -32.000001,-14.326885 -32.000001,-32z" fill="#76C2AF" stroke-miterlimit="3"/>
  <path d="m-0.848308,48.896248l49.95119,0.019165l-1.621006,2.405807l-46.690115,-0.057487l-1.640069,-2.367485l0,0zm0.343203,-32.001112l49.283685,-0.057526l1.430359,2.467688l-52.163339,0.019291l1.449295,-2.429453zm-4.863733,16.035376l58.972975,-0.057419l-0.076126,2.467613l-58.858661,-0.038261l-0.038075,-2.371933l-0.000112,0l-0.000001,0zm59.021948,0.228786c0,16.337872 -13.238235,29.629128 -29.512623,29.629128c-16.267603,0 -29.503182,-13.293514 -29.503182,-29.629128c0,-16.335646 13.237948,-29.626695 29.503182,-29.626695c16.274387,-0.002479 29.512623,13.29105 29.512623,29.626695zm-29.510395,-32.001202c-17.566031,0 -31.860569,14.354489 -31.860569,31.998936c0,17.646694 14.294539,32.001064 31.860569,32.001064c17.575665,0 31.867672,-14.35437 31.867672,-32.001064c0,-17.644447 -14.292007,-31.998936 -31.867672,-31.998936zm8.941002,32.001202c0,17.458462 -4.710266,29.629128 -8.941002,29.629128c-4.225941,0 -8.936087,-12.170666 -8.936087,-29.629128c0,-17.46316 4.707869,-29.626695 8.936087,-29.626695c4.228302,-0.002479 8.941002,12.163538 8.941002,29.626695zm-8.941002,-32.001202c-7.338278,0 -11.298323,16.487973 -11.298323,31.998936c0,15.51545 3.960045,32.001064 11.298323,32.001064c7.338432,0 11.305523,-16.48814 11.305523,-32.001064c-0.002361,-15.510963 -3.967091,-31.998936 -11.305523,-31.998936zm20.939659,32.001202c0,16.337872 -9.396664,29.629128 -20.939659,29.629128c-11.540482,0 -20.932488,-13.293514 -20.932488,-29.629128c0,-16.335646 9.392007,-29.626695 20.932488,-29.626695c11.542995,-0.002479 20.939659,13.29105 20.939659,29.626695zm-20.939659,-32.001202c-12.841597,0 -23.294743,14.354489 -23.294743,31.998936c0,17.646694 10.453146,32.001064 23.294743,32.001064c12.846325,0 23.297272,-14.35437 23.297272,-32.001064c0,-17.644447 -10.450947,-31.998936 -23.297272,-31.998936z" fill="#80ADA2" stroke="#76C2AF" stroke-miterlimit="3" stroke-width="0.559981" id="svg_2"/>
  <path id="svg_3" d="m42.045265,46.401096l-14.141998,-14.143002c-1.030998,-1.031 -2.480999,-1.367001 -3.799,-1.037001l-8.093002,-7.993l-3.037,-5.897999l-5.910999,-3.044l-2.867,2.867l3.044,5.910999l5.910999,3.044001l0.008001,-0.008001l8.065999,7.966003c-0.350998,1.330997 -0.021,2.805 1.021999,3.848999l14.142002,14.141998c1.562,1.562 4.095001,1.562 5.657001,0c1.562,-1.561996 1.562,-4.093998 -0.001003,-5.655998z" fill="#231F20" stroke-miterlimit="3"/>
  <path id="svg_4" d="m26.645267,37.421097l-16.102002,-15.904003l2.934,-2.792l16.102,15.904003l-2.933998,2.792z" fill="#4F5D73" stroke-miterlimit="3"/>
  <path id="svg_5" d="m42.045265,50.057095c-1.561996,1.562 -4.094997,1.562 -5.656998,0l-14.141003,-14.141998c-1.562,-1.562 -1.562,-4.095001 0,-5.657001l0,0c1.562,-1.562 4.095001,-1.562 5.657001,0l14.142002,14.142002c1.562,1.563 1.562,4.095001 -0.001003,5.656998l0,0z" fill="#F5CF87" stroke-miterlimit="3"/>
  <path id="svg_6" d="m45.450268,18.511095l-6.476002,6.476c-1.562,1.562 -4.094997,1.562 -5.656998,0c-1.562,-1.562 -1.562,-4.095001 0,-5.657l6.475998,-6.476c-1.131001,-0.444 -2.357998,-0.696 -3.646999,-0.696c-5.522999,0 -10,4.476998 -10,9.999999c0,1.289 0.251999,2.516001 0.695999,3.646999l-11.049001,11.049002c-1.130999,-0.444 -2.358,-0.695999 -3.646999,-0.695999c-5.523,0 -10,4.477001 -10,10c0,1.289001 0.252,2.515999 0.696,3.646999l6.476001,-6.475998c1.561998,-1.562 4.094999,-1.562 5.657,0c1.561999,1.562 1.561999,4.094997 0,5.656998l-6.476,6.476002c1.130999,0.444 2.358,0.695999 3.646999,0.695999c5.523,0 10.000001,-4.477001 10.000001,-10c0,-1.289001 -0.252003,-2.515999 -0.695999,-3.646999l11.049,-11.049002c1.131001,0.443998 2.357998,0.696001 3.646999,0.696001c5.522999,0 10,-4.477001 10,-10.000002c0,-1.289 -0.251999,-2.516001 -0.695999,-3.646999z" fill="#231F20" stroke-miterlimit="3"/>
  <path id="svg_7" d="m15.257619,35.389542l12.119693,-12.119694l5.656799,5.656801l-12.119692,12.119692l-5.6568,-5.656799z" fill="#FFFFFF" stroke-miterlimit="3"/>
  <path id="svg_8" d="m13.151265,24.108095l-5.910999,-3.044001l-3.044,-5.910999l2.867,-2.867l5.910999,3.044l3.044,5.910999l-2.867,2.867001z" fill="#4F5D73" stroke-miterlimit="3"/>
  <path id="svg_9" d="m38.974266,22.986094c-1.562,1.562 -4.094997,1.562 -5.656998,0c-1.562,-1.561998 -1.562,-4.094999 0,-5.657l6.475998,-6.475999c-1.131001,-0.443 -2.357998,-0.695 -3.646999,-0.695c-5.522999,0 -10,4.477 -10,9.999999c0,5.523001 4.477001,10 10,10c5.522999,0 10,-4.476999 10,-10c0,-1.289 -0.251999,-2.516001 -0.695999,-3.646999l-6.476002,6.474998z" fill="#FFFFFF" stroke-miterlimit="3"/>
  <path id="svg_10" d="m9.318267,41.330097c1.561998,-1.562 4.094999,-1.562 5.657,0c1.561999,1.562 1.561999,4.094997 0,5.656998l-6.476,6.476002c1.130999,0.443001 2.358,0.695 3.646999,0.695c5.523,0 10.000001,-4.477001 10.000001,-10c0,-5.522999 -4.477001,-10 -10.000001,-10c-5.523,0 -10,4.477001 -10,10c0,1.289001 0.252,2.515999 0.696,3.646999l6.476001,-6.474998z" fill="#FFFFFF" stroke-miterlimit="3"/>
 </g>
 <g>
  <title>Layer 2</title>
  <g id="workspace"/>
 </g>
 <g>
  <title>background</title>
  <rect fill="none" id="canvas_background" height="130" width="130" y="-1" x="-1"/>
 </g>
</svg>